# xmcd
#
# Track frame offsets:
#	150
#	19065
#	36050
#	54460
#
# Disc length: 899 seconds
#
# Revision: 1
# Processed by: cddbd v1.5.1PL0 Copyright (c) Steve Scherf et al.
# Submitted via: EasyCDDAExtractor 7.0.6.1
#
DISCID=28038104
DTITLE=William Becton n Friends - workin' out
DYEAR=1997
DGENRE=Rap
TTITLE0=workin' out (radio edit)
TTITLE1=workin' out (remix)
TTITLE2=be encouraged (remix)
TTITLE3=workin' out (percapella)
EXTD=
EXTT0=
EXTT1=
EXTT2=
EXTT3=
PLAYORDER=
